<svg width="911" height="256" viewBox="0 0 911 256" fill="none" xmlns="http://www.w3.org/2000/svg">
<circle cx="192" cy="64" r="64" fill="#815483"/>
<path d="M128 192C128 156.654 156.654 128 192 128H256V192C256 227.346 227.346 256 192 256H128V192Z" fill="#626E60"/>
<path d="M0 32C0 14.3269 14.3269 0 32 0H128V64C128 99.3462 99.3462 128 64 128V128C28.6538 128 0 99.3462 0 64V32Z" fill="#617EAE"/>
<path d="M0 192C0 156.654 28.6538 128 64 128V128C99.3462 128 128 156.654 128 192V256H32C14.3269 256 0 241.673 0 224V192Z" fill="#394E6F"/>
<path d="M315.646 86.95H331.441V158.635H375.91V172H315.646V86.95ZM412.301 106.39C421.859 106.39 429.149 108.698 434.171 113.315C439.274 117.851 441.825 124.736 441.825 133.97V172H427.488V164.102C425.625 166.937 422.952 169.124 419.469 170.663C416.067 172.121 411.936 172.851 407.076 172.851C402.216 172.851 397.964 172.041 394.319 170.42C390.674 168.719 387.839 166.411 385.814 163.495C383.87 160.498 382.898 157.136 382.898 153.41C382.898 147.578 385.044 142.921 389.337 139.438C393.711 135.874 400.556 134.092 409.871 134.092H426.638V133.12C426.638 128.584 425.261 125.101 422.507 122.671C419.834 120.241 415.824 119.026 410.478 119.026C406.833 119.026 403.229 119.593 399.665 120.727C396.182 121.861 393.225 123.44 390.795 125.465L384.842 114.409C388.244 111.817 392.334 109.832 397.113 108.455C401.892 107.078 406.955 106.39 412.301 106.39ZM410.235 161.794C414.042 161.794 417.404 160.943 420.32 159.242C423.317 157.46 425.423 154.949 426.638 151.709V144.176H410.964C402.216 144.176 397.842 147.052 397.842 152.803C397.842 155.557 398.936 157.744 401.123 159.364C403.31 160.984 406.347 161.794 410.235 161.794ZM526.305 107.119V162.158C526.305 185.001 514.641 196.422 491.313 196.422C485.076 196.422 479.163 195.612 473.574 193.992C467.985 192.453 463.368 190.185 459.723 187.188L466.527 175.767C469.362 178.116 472.926 179.979 477.219 181.356C481.593 182.814 486.007 183.543 490.462 183.543C497.59 183.543 502.815 181.923 506.136 178.683C509.457 175.443 511.117 170.501 511.117 163.859V160.457C508.525 163.292 505.366 165.439 501.64 166.897C497.914 168.355 493.824 169.084 489.369 169.084C483.213 169.084 477.624 167.788 472.602 165.196C467.661 162.523 463.732 158.797 460.816 154.018C457.981 149.239 456.564 143.771 456.564 137.615C456.564 131.459 457.981 126.032 460.816 121.334C463.732 116.555 467.661 112.87 472.602 110.278C477.624 107.686 483.213 106.39 489.369 106.39C494.067 106.39 498.319 107.159 502.126 108.698C506.014 110.237 509.254 112.586 511.846 115.745V107.119H526.305ZM491.677 156.205C497.428 156.205 502.126 154.504 505.771 151.102C509.497 147.619 511.36 143.123 511.36 137.615C511.36 132.188 509.497 127.774 505.771 124.372C502.126 120.97 497.428 119.269 491.677 119.269C485.845 119.269 481.066 120.97 477.34 124.372C473.695 127.774 471.873 132.188 471.873 137.615C471.873 143.123 473.695 147.619 477.34 151.102C481.066 154.504 485.845 156.205 491.677 156.205ZM575.432 172.851C568.871 172.851 562.958 171.433 557.693 168.598C552.428 165.763 548.297 161.834 545.3 156.812C542.384 151.709 540.926 145.958 540.926 139.559C540.926 133.16 542.384 127.45 545.3 122.428C548.297 117.406 552.428 113.477 557.693 110.643C562.958 107.807 568.871 106.39 575.432 106.39C582.074 106.39 588.027 107.807 593.292 110.643C598.557 113.477 602.648 117.406 605.564 122.428C608.561 127.45 610.059 133.16 610.059 139.559C610.059 145.958 608.561 151.709 605.564 156.812C602.648 161.834 598.557 165.763 593.292 168.598C588.027 171.433 582.074 172.851 575.432 172.851ZM575.432 159.85C581.021 159.85 585.638 157.987 589.283 154.261C592.928 150.535 594.75 145.634 594.75 139.559C594.75 133.484 592.928 128.584 589.283 124.858C585.638 121.132 581.021 119.269 575.432 119.269C569.843 119.269 565.226 121.132 561.581 124.858C558.017 128.584 556.235 133.484 556.235 139.559C556.235 145.634 558.017 150.535 561.581 154.261C565.226 157.987 569.843 159.85 575.432 159.85ZM706.473 106.39C714.654 106.39 721.134 108.779 725.913 113.558C730.692 118.256 733.082 125.344 733.082 134.821V172H717.894V136.765C717.894 131.095 716.639 126.842 714.128 124.007C711.617 121.091 708.012 119.633 703.314 119.633C698.211 119.633 694.121 121.334 691.043 124.736C687.965 128.057 686.426 132.836 686.426 139.073V172H671.238V136.765C671.238 131.095 669.983 126.842 667.472 124.007C664.961 121.091 661.356 119.633 656.658 119.633C651.474 119.633 647.343 121.294 644.265 124.615C641.268 127.936 639.77 132.755 639.77 139.073V172H624.582V107.119H639.041V115.381C641.471 112.465 644.508 110.237 648.153 108.698C651.798 107.159 655.848 106.39 660.303 106.39C665.163 106.39 669.456 107.321 673.182 109.184C676.989 110.966 679.986 113.639 682.173 117.203C684.846 113.801 688.289 111.169 692.501 109.306C696.713 107.362 701.37 106.39 706.473 106.39ZM824.097 173.215C812.352 173.215 803.199 169.934 796.638 163.373C790.077 156.731 786.797 147.254 786.797 134.942V86.95H802.592V134.335C802.592 151.021 809.801 159.364 824.219 159.364C838.556 159.364 845.724 151.021 845.724 134.335V86.95H861.276V134.942C861.276 147.254 857.996 156.731 851.435 163.373C844.955 169.934 835.842 173.215 824.097 173.215ZM883.397 86.95H899.192V172H883.397V86.95Z" fill="#222222"/>
</svg>
